<svg width="41" height="39" viewBox="0 0 41 39" fill="none" xmlns="http://www.w3.org/2000/svg">
<path d="M13.7441 0.00059972H25.9439L13.2796 37.5236C13.1496 37.9093 12.9018 38.2444 12.5712 38.4818C12.2405 38.7193 11.8437 38.8469 11.4367 38.8469H1.94253C1.63418 38.8468 1.33028 38.7734 1.05592 38.6326C0.781563 38.4919 0.54462 38.2879 0.364665 38.0375C0.184762 37.7871 0.0670995 37.4974 0.0214203 37.1925C-0.0242589 36.8875 0.00335919 36.5761 0.101988 36.284L11.9012 1.32358C12.0313 0.937901 12.2791 0.602744 12.6097 0.365304C12.9403 0.127863 13.3371 9.87621e-05 13.7441 0V0.00059972Z" fill="#09DD46"/>
<path d="M32.2421 25H12.8971C12.7172 24.9996 12.5413 25.0534 12.3924 25.1544C12.2436 25.2554 12.1286 25.399 12.0625 25.5663C11.9965 25.7336 11.9824 25.917 12.0221 26.0925C12.0618 26.268 12.1534 26.4274 12.2851 26.55L24.7161 38.153C25.0782 38.4906 25.555 38.6782 26.0501 38.678H37.0041L32.2421 25Z" fill="#09DD46"/>
<path d="M28.4368 1.32118C28.3069 0.936043 28.0594 0.601379 27.7292 0.364354C27.399 0.127328 27.0027 -0.000109191 26.5963 7.01989e-08H13C13.4064 4.36716e-05 13.8025 0.127545 14.1327 0.364554C14.4628 0.601562 14.7103 0.93614 14.8402 1.32118L26.6397 36.2831C26.7385 36.5753 26.7663 36.8868 26.7207 37.1919C26.6751 37.4969 26.5576 37.7867 26.3777 38.0373C26.1978 38.2879 25.9609 38.492 25.6864 38.6328C25.412 38.7736 25.1079 38.847 24.7995 38.8469H38.3963C38.7047 38.8467 39.0085 38.7731 39.2828 38.6322C39.5571 38.4913 39.7939 38.2872 39.9736 38.0367C40.1534 37.7862 40.271 37.4965 40.3167 37.1916C40.3623 36.8867 40.3348 36.5752 40.2363 36.2831L28.4368 1.32118Z" fill="#09DD46"/>
</svg>
