<svg width="180" height="180" viewBox="0 0 180 180" fill="none" xmlns="http://www.w3.org/2000/svg">
<path d="M118.125 61.875C125.584 61.875 132.738 58.9118 138.012 53.6374C143.287 48.3629 146.25 41.2092 146.25 33.75C146.25 26.2908 143.287 19.1371 138.012 13.8626C132.738 8.58816 125.584 5.625 118.125 5.625H61.875C54.4158 5.625 47.2621 8.58816 41.9876 13.8626C36.7132 19.1371 33.75 26.2908 33.75 33.75C33.75 41.2092 36.7132 48.3629 41.9876 53.6374C47.2621 58.9118 54.4158 61.875 61.875 61.875C54.4158 61.875 47.2621 64.8382 41.9876 70.1126C36.7132 75.3871 33.75 82.5408 33.75 90C33.75 97.4592 36.7132 104.613 41.9876 109.887C47.2621 115.162 54.4158 118.125 61.875 118.125C56.3124 118.125 50.8747 119.774 46.2496 122.865C41.6245 125.955 38.0196 130.348 35.8909 135.487C33.7622 140.626 33.2052 146.281 34.2904 151.737C35.3756 157.193 38.0543 162.204 41.9876 166.137C45.921 170.071 50.9324 172.749 56.3881 173.835C61.8438 174.92 67.4988 174.363 72.638 172.234C77.7772 170.105 82.1697 166.501 85.2601 161.875C88.3505 157.25 90 151.813 90 146.25V61.875H118.125Z" fill="#09DD46"/>
<path d="M118.125 118.125C133.658 118.125 146.25 105.533 146.25 90C146.25 74.467 133.658 61.875 118.125 61.875C102.592 61.875 90 74.467 90 90C90 105.533 102.592 118.125 118.125 118.125Z" fill="#09DD46"/>
</svg>
