<svg width="13" height="12" viewBox="0 0 13 12" fill="none" xmlns="http://www.w3.org/2000/svg">
<path d="M11.8874 6.21756C11.8837 6.27273 11.8683 6.32666 11.842 6.37617C11.8157 6.42568 11.779 6.46978 11.7341 6.50584C11.6893 6.54191 11.6371 6.56922 11.5807 6.58617C11.5244 6.60311 11.4649 6.60935 11.4059 6.60451L6.33193 6.31294C6.27324 6.30957 6.21553 6.3281 6.17148 6.36444C6.12742 6.40079 6.10065 6.45198 6.09703 6.50675L5.78441 11.2462C5.77979 11.3331 5.74646 11.4166 5.689 11.4851C5.63154 11.5537 5.55276 11.604 5.46347 11.6291C5.35709 11.6575 5.2432 11.6477 5.14417 11.6017C5.04513 11.5557 4.9681 11.4767 4.92821 11.3804L0.709981 1.18742C0.677435 1.10868 0.671467 1.02252 0.692875 0.940518C0.714284 0.858514 0.762047 0.784581 0.829757 0.728634C0.897467 0.672688 0.981888 0.637403 1.0717 0.627513C1.1615 0.617623 1.2524 0.633599 1.33221 0.673301L11.6535 5.82709C11.7285 5.86442 11.7904 5.92107 11.8318 5.99029C11.8733 6.05952 11.8926 6.1384 11.8874 6.21756Z" fill="#0AE448"/>
<path d="M6.47803 5.27504L10.1847 8.82912C10.3827 9.01895 10.3786 9.32236 10.1756 9.5068L9.52494 10.098C9.32193 10.2824 8.99686 10.2781 8.79888 10.0882L5.36103 6.79193C5.21254 6.64956 5.2156 6.42201 5.36786 6.28367L6.47803 5.27504Z" fill="#0AE448"/>
</svg>
