<svg width="150" height="150" viewBox="0 0 150 150" fill="none" xmlns="http://www.w3.org/2000/svg">
<path d="M147.172 68.319L81.6765 2.82901C77.9081 -0.943003 71.791 -0.943003 68.0179 2.82901L54.4185 16.4303L71.6689 33.6813C75.6792 32.3273 80.2757 33.2352 83.4709 36.4311C86.6827 39.6469 87.5841 44.283 86.1961 48.3068L102.822 64.9338C106.845 63.5476 111.486 64.4432 114.698 67.6609C119.188 72.1503 119.188 79.4248 114.698 83.9153C110.207 88.4073 102.932 88.4073 98.4387 83.9153C95.0622 80.536 94.2271 75.5748 95.9372 71.4145L80.4314 55.908L80.4301 96.7131C81.5248 97.2551 82.558 97.9784 83.4703 98.8868C87.9594 103.376 87.9594 110.649 83.4703 115.145C78.9798 119.634 71.7023 119.634 67.2166 115.145C62.7268 110.649 62.7268 103.376 67.2166 98.8868C68.3262 97.7791 69.6101 96.9408 70.98 96.3788V55.1945C69.6094 54.6349 68.327 53.8028 67.2158 52.6862C63.8149 49.2879 62.9959 44.2964 64.74 40.12L47.7345 23.1112L2.82978 68.0164C-0.943261 71.7913 -0.943261 77.9086 2.82978 81.6809L68.3212 147.171C72.0918 150.943 78.2067 150.943 81.9825 147.171L147.171 81.9903C150.943 78.2164 150.943 72.0973 147.171 68.3245" fill="#09DD46"/>
</svg>
