<svg width="295" height="295" viewBox="0 0 295 295" fill="none" xmlns="http://www.w3.org/2000/svg">
<path d="M243.375 0H51.625C23.1133 0 0 23.1133 0 51.625V243.375C0 271.887 23.1133 295 51.625 295H243.375C271.887 295 295 271.887 295 243.375V51.625C295 23.1133 271.887 0 243.375 0Z" fill="#09DD46"/>
<path d="M149.949 180.126H105.562L94.4652 213.81C94.3377 214.837 93.6361 215.35 92.3606 215.35H72.2715C70.996 215.35 70.5496 214.708 70.9323 213.425L110.728 99.0907C111.621 97.1659 112.195 93.5729 112.45 88.3117C112.45 87.5418 112.896 87.1568 113.789 87.1568H141.34C141.978 87.1568 142.488 87.4776 142.87 88.1192L187.258 213.618C187.64 214.773 187.258 215.35 186.11 215.35H163.533C162.641 215.35 162.003 214.901 161.62 214.003L149.949 180.126ZM110.536 161.455H144.975C144.465 159.658 141.786 151.51 136.939 137.01C132.22 122.381 129.095 112.372 127.564 106.982H127.373C125.842 113.527 120.23 131.684 110.536 161.455Z" fill="black"/>
<path d="M199.136 213.618V123.151C199.136 122.124 199.646 121.611 200.667 121.611H221.904C222.924 121.611 223.435 122.124 223.435 123.151V213.81C223.435 214.837 222.924 215.35 221.904 215.35H200.858C199.71 215.35 199.136 214.773 199.136 213.618ZM220.756 102.17C218.46 104.48 215.335 105.635 211.381 105.635C207.427 105.635 204.302 104.48 202.006 102.17C199.71 99.8606 198.562 96.7167 198.562 92.7388C198.562 88.8891 199.774 85.7452 202.197 83.3071C204.621 80.869 207.746 79.65 211.572 79.65C215.399 79.65 218.46 80.869 220.756 83.3071C223.052 85.7452 224.2 88.8891 224.2 92.7388C224.2 96.7167 223.052 99.8606 220.756 102.17Z" fill="black"/>
</svg>
