<svg width="129" height="129" viewBox="0 0 129 129" fill="none" xmlns="http://www.w3.org/2000/svg">
<path d="M18.9639 8.0625C12.9432 8.0625 8.0625 12.9432 8.0625 18.9639V110.036C8.0625 116.057 12.9432 120.938 18.9639 120.938H110.036C116.057 120.938 120.938 116.057 120.938 110.036V18.9639C120.938 12.9432 116.057 8.0625 110.036 8.0625H18.9639ZM68.5312 95.7422C68.5312 106.73 62.0409 112.086 52.6456 112.086C46.4087 112.086 42.095 109.713 39.2542 106.349C37.5283 104.305 38.4731 101.336 40.7616 99.9512V99.9512C43.2841 98.4243 46.1691 99.6938 48.4906 101.512C49.3716 102.202 50.4583 102.615 51.9376 102.615C54.9611 102.615 57.4453 101.252 57.4453 95.9488V66.0117C57.4453 62.9504 59.927 60.4688 62.9883 60.4688V60.4688C66.0496 60.4688 68.5312 62.9504 68.5312 66.0117V95.7422ZM93.5628 111.834C86.051 111.834 80.5663 109.249 77.0079 105.299C75.1619 103.25 76.11 100.172 78.4972 98.7901V98.7901C80.9412 97.3755 83.9445 98.3447 86.1481 100.111C87.976 101.575 90.2688 102.434 93.3486 102.434C97.7427 102.434 100.295 100.489 100.295 97.458C100.295 93.8223 97.6671 92.5348 92.817 90.4033L90.1665 89.2645C82.5121 86.0092 77.4378 81.9175 77.4378 73.278C77.4378 65.3239 83.4973 59.5138 92.9682 59.5138C98.1054 59.5138 102.141 60.7299 105.314 64.0215C107.117 65.8918 106.336 68.8476 104.151 70.2524V70.2524C101.779 71.7775 98.8078 70.5936 96.3142 69.2757C95.3412 68.7615 94.2456 68.5312 92.9556 68.5312C89.849 68.5312 87.8787 70.5015 87.8787 73.0664C87.8787 76.2486 89.849 77.5361 94.3942 79.5063L97.0448 80.6426C106.062 84.5076 111.139 88.4532 111.139 97.3119C111.142 106.861 103.641 111.834 93.5628 111.834Z" fill="#09DD46"/>
</svg>
