<svg width="118" height="219" viewBox="0 0 118 219" fill="none" xmlns="http://www.w3.org/2000/svg">
<path d="M112.599 172.407H111.776V171.947H113.993V172.407H113.175V174.706H112.599V172.407ZM117.022 172.527H117.009L116.193 174.707H115.82L115.009 172.527H114.999V174.707H114.456V171.947H115.255L116.006 173.901L116.756 171.947H117.551V174.707H117.022V172.527H117.022Z" fill="#09DD46"/>
<path d="M38.8652 115.973C38.8652 115.973 33.1345 119.306 42.9435 120.434C54.8268 121.789 60.9003 121.595 73.9958 119.116C73.9958 119.116 77.4387 121.275 82.247 123.145C52.8903 135.727 15.8071 122.416 38.8652 115.973Z" fill="#09DD46"/>
<path d="M35.2779 99.5551C35.2779 99.5551 28.8504 104.313 38.6666 105.328C51.3608 106.638 61.3856 106.745 78.7324 103.405C78.7324 103.405 81.1317 105.837 84.9045 107.167C49.4105 117.546 9.87668 107.986 35.2779 99.5551Z" fill="#09DD46"/>
<path d="M65.5192 71.704C72.7526 80.032 63.6186 87.5262 63.6186 87.5262C63.6186 87.5262 81.9856 78.0446 73.5505 66.1714C65.6723 55.0989 59.6308 49.5974 92.337 30.629C92.337 30.629 40.9991 43.4508 65.5192 71.704Z" fill="#09DD46"/>
<path d="M104.346 128.117C104.346 128.117 108.587 131.612 99.6755 134.315C82.7305 139.448 29.1485 140.998 14.2636 134.52C8.91288 132.192 18.947 128.961 22.1034 128.284C25.3951 127.57 27.2762 127.703 27.2762 127.703C21.3257 123.511 -11.1857 135.934 10.7621 139.492C70.6168 149.198 119.872 135.121 104.346 128.117Z" fill="#09DD46"/>
<path d="M41.6209 82.5438C41.6209 82.5438 14.3656 89.0174 31.9691 91.3682C39.4018 92.3633 54.2188 92.1382 68.0204 90.9818C79.2999 90.0303 90.6258 88.0073 90.6258 88.0073C90.6258 88.0073 86.6485 89.7106 83.7711 91.6754C56.0939 98.9545 2.62661 95.5682 18.0191 88.1225C31.0366 81.83 41.6209 82.5438 41.6209 82.5438Z" fill="#09DD46"/>
<path d="M90.5137 109.873C118.649 95.2528 105.64 81.2031 96.5605 83.0959C94.335 83.5591 93.3427 83.9605 93.3427 83.9605C93.3427 83.9605 94.1688 82.6662 95.7468 82.106C113.71 75.7909 127.524 100.732 89.9482 110.61C89.9482 110.61 90.3836 110.221 90.5137 109.873Z" fill="#09DD46"/>
<path d="M73.5502 0C73.5502 0 89.1319 15.5869 58.7717 39.5553C34.4259 58.782 53.2201 69.7445 58.7616 82.2697C44.5505 69.4479 34.1215 58.1607 41.1181 47.6557C51.3875 32.2353 79.8371 24.7589 73.5502 0Z" fill="#09DD46"/>
<path d="M44.3858 149.49C71.392 151.219 112.863 148.531 113.845 135.752C113.845 135.752 111.957 140.597 91.5262 144.444C68.4758 148.782 40.0463 148.275 23.1846 145.495C23.185 145.495 26.6364 148.352 44.3858 149.49Z" fill="#09DD46"/>
<path d="M39.9597 198.317C37.412 200.527 34.7213 201.768 32.3067 201.768C28.8601 201.768 26.998 199.701 26.998 196.386C26.998 192.801 28.9931 190.179 36.9973 190.179H39.9593V198.317H39.9597ZM46.9894 206.249V181.697C46.9894 175.426 43.4123 171.287 34.7876 171.287C29.7526 171.287 25.342 172.53 21.7572 174.116L22.7919 178.462C25.6144 177.426 29.2679 176.461 32.8539 176.461C37.8223 176.461 39.9597 178.462 39.9597 182.598V185.701H37.4799C25.4087 185.701 19.9634 190.386 19.9634 197.42C19.9634 203.49 23.5518 206.94 30.3083 206.94C34.6514 206.94 37.8934 205.147 40.9241 202.523L41.4742 206.249H46.9894V206.249Z" fill="#09DD46"/>
<path d="M70.4508 206.249H61.683L51.1311 171.909H58.7878L65.3353 193.008L66.7908 199.353C70.1032 190.179 72.4459 180.871 73.6177 171.909H81.0657C79.0702 183.217 75.4794 195.629 70.4508 206.249Z" fill="#09DD46"/>
<path d="M104.085 198.317C101.532 200.527 98.8365 201.768 96.4219 201.768C92.9814 201.768 91.1144 199.701 91.1144 196.386C91.1144 192.801 93.1143 190.179 101.118 190.179H104.085V198.317ZM111.114 206.249V181.697C111.114 175.426 107.527 171.287 98.9129 171.287C93.8742 171.287 89.462 172.53 85.8788 174.116L86.912 178.462C89.7357 177.426 93.3961 176.461 96.9792 176.461C101.944 176.461 104.085 178.462 104.085 182.598V185.701H101.601C89.5259 185.701 84.083 190.386 84.083 197.42C84.083 203.49 87.6686 206.94 94.4239 206.94C98.7694 206.94 102.01 205.147 105.046 202.523L105.598 206.249H111.114V206.249Z" fill="#09DD46"/>
<path d="M12.2554 212.081C10.2514 215.007 7.01463 217.322 3.47106 218.631L0.000244141 214.547C2.69743 213.163 5.01064 210.928 6.08539 208.846C7.01504 206.994 7.39983 204.608 7.39983 198.901V159.696H14.8685V198.364C14.8681 205.993 14.2582 209.075 12.2554 212.081Z" fill="#09DD46"/>
</svg>
