<svg width="220" height="152" viewBox="0 0 220 152" fill="none" xmlns="http://www.w3.org/2000/svg">
<path d="M217.241 66.4396C215.832 64.9228 205.717 52.5647 200.264 45.9044C197.364 42.3637 195.073 39.5664 194.111 38.4062L194.034 38.3117L193.948 38.2215C191.705 35.7163 188.516 32.846 183.729 32.846C182.951 32.856 182.174 32.9192 181.405 33.035C181.246 33.0565 181.082 33.0823 180.911 33.0995C179.858 33.2155 176.588 33.744 168.819 35.0245C162.803 36.0085 153.732 37.5039 152.357 37.6328L152.052 37.6586L151.756 37.7144C147.459 38.4793 144.614 40.3871 143.351 43.3821C142.685 44.9634 141.967 48.1732 144.614 51.9159C145.272 52.8698 147.549 56.0238 151.464 61.4422C154.067 65.0517 156.994 69.0994 159.52 72.6143L111.678 83.7907L64.738 6.89662L64.652 6.75052L64.5532 6.60872L64.3641 6.32942C62.4434 3.51062 60.0543 0 53.1534 0C52.6678 0 52.1608 2.62522e-07 51.5936 0.0472668C49.617 0.154691 42.3895 0.72189 34.0233 1.38362C24.7891 2.10981 12.1518 3.1024 10.5103 3.14537H10.1967L9.85721 3.17975C5.92979 3.56218 3.0809 5.15635 1.3922 7.90641C-1.42231 12.4999 0.782031 17.6562 1.50392 19.3492C2.952 22.7739 16.1394 50.5752 27.7712 75.1152C35.5058 91.4178 43.4895 108.275 44.1427 109.77C45.2912 112.563 47.2576 114.944 49.7836 116.6C52.3096 118.256 55.2772 119.109 58.2968 119.047C59.7219 119.041 61.1422 118.882 62.5336 118.575H62.6239L62.7098 118.553C68.6654 117.101 87.5591 112.305 101.039 108.846C101.855 110.273 102.715 111.781 103.617 113.332C113.04 129.876 119.902 141.843 122.163 144.898C123.323 146.526 126.76 151.253 133.232 151.253C135.578 151.253 137.726 150.651 139.995 150.011L140.652 149.826H140.704C145.229 148.537 205.455 127.413 208.54 126.043L208.635 126C210.972 124.964 214.504 123.4 215.587 119.382C216.296 116.753 215.664 114.084 213.705 111.45L213.675 111.412L213.645 111.373C213.28 110.9 211.926 109.134 210.091 106.689C206.168 101.503 199.83 93.1237 194.261 85.8318C201.725 83.8981 210.933 81.4876 212.901 80.8688C217.83 79.3949 219.321 76.2753 219.777 74.5394C220.116 73.1858 220.559 69.7268 217.241 66.4396ZM79.7387 91.4436C72.0858 93.2354 66.7533 94.4858 63.4575 95.2679C60.5914 89.5358 54.9753 78.2305 49.4924 67.1959C36.7132 41.4485 30.1131 28.1924 26.6411 21.2614L30.1432 20.9606C35.8753 20.4664 43.7258 19.7918 48.0959 19.4266C55.2976 31.5698 80.0309 73.2675 89.4756 89.1662L79.7387 91.4436ZM156.293 120.079C145.89 123.516 140.253 125.394 137.206 126.412C134.499 121.969 128.544 112.009 123.254 103.127L172.97 90.4596C175.118 93.3858 179.23 98.9332 187.347 109.766C179.583 112.361 166.636 116.65 156.293 120.079ZM180.3 67.8146L170.091 54.2663C175.965 53.2393 179.346 52.6464 181.327 52.2897L186.484 58.6836L191.614 65.0517C188.091 65.9068 183.992 66.908 180.3 67.8146Z" fill="#09DD46"/>
</svg>
