<svg width="45" height="45" viewBox="0 0 45 45" fill="none" xmlns="http://www.w3.org/2000/svg">
<path d="M41.171 0H3.82373C1.78301 0 0 1.46836 0 3.48511V40.9153C0 42.943 1.78301 44.75 3.82373 44.75H41.16C43.2117 44.75 44.75 42.931 44.75 40.9153V3.48511C44.762 1.46836 43.2117 0 41.171 0ZM13.8715 37.3013H7.46066V17.3686H13.8715V37.3013ZM10.8878 14.338H10.8419C8.79018 14.338 7.46166 12.8107 7.46166 10.8988C7.46166 8.952 8.82514 7.46066 10.9228 7.46066C13.0205 7.46066 14.304 8.94101 14.35 10.8988C14.349 12.8107 13.0205 14.338 10.8878 14.338ZM37.3013 37.3013H30.8905V26.4025C30.8905 23.7914 29.9575 22.0074 27.6381 22.0074C25.8661 22.0074 24.8173 23.2061 24.3508 24.3738C24.176 24.7933 24.129 25.3647 24.129 25.948V37.3013H17.7182V17.3686H24.129V20.1425C25.062 18.814 26.5194 16.9021 29.9106 16.9021C34.1189 16.9021 37.3023 19.676 37.3023 25.6563L37.3013 37.3013Z" fill="white"/>
</svg>
