     <svg width="174" height="197" viewBox="0 0 174 197" fill="none" xmlns="http://www.w3.org/2000/svg">
<path d="M127.787 68.7462C130.054 73.4421 132.584 78.0207 134.833 82.7253C139.161 91.7793 142.448 101.339 143.813 111.199C145.178 121.059 144.584 131.241 141.347 140.695C137.686 151.367 130.736 160.861 122.221 168.632C112.148 177.825 99.2173 184.912 85.2689 185.435C76.1801 185.775 67.1318 183.304 59.0832 179.273C52.3192 175.887 46.1443 171.374 41.2177 165.815C36.2911 160.256 32.633 153.637 30.9391 146.546C28.8531 137.814 29.7972 128.545 32.954 120.11C35.2119 114.077 38.5587 108.461 40.9413 102.472C43.5452 95.9281 44.999 88.9405 48.4488 82.761C51.575 77.1577 56.2648 72.3718 58.756 66.4876C60.2439 62.9733 60.8893 59.1987 61.8501 55.5215C62.8109 51.8443 64.156 48.1405 66.7725 45.2839C69.9265 41.8418 74.67 39.976 79.4371 39.4521C84.2043 38.9282 89.0299 39.6356 93.7087 40.6509C97.4336 41.459 101.113 42.4624 104.713 43.6804C107.785 44.7203 110.83 45.931 113.487 47.7299C117.107 50.1805 119.864 53.6312 122.061 57.3058C124.258 60.9804 125.939 64.906 127.794 68.7468L127.787 68.7462Z" fill="white"/>
<path d="M87.7613 185.518C91.5907 185.73 95.413 186.084 99.2075 186.629C102.544 187.111 105.857 187.733 109.136 188.492C114.272 189.676 119.39 191.186 124.673 191.329C126.064 191.367 127.458 191.308 128.823 191.02C130.187 190.733 131.498 190.209 132.586 189.384C134.208 188.154 135.232 186.299 135.62 184.359C136.007 182.419 135.764 180.401 135.167 178.511C133.973 174.732 131.407 171.507 129.293 168.115C128.078 166.173 126.995 164.154 125.679 162.273C124.363 160.392 122.79 158.631 120.792 157.405C118.029 155.711 114.604 155.159 111.333 155.469C108.063 155.779 104.928 156.903 102.009 158.34C97.9181 160.355 94.0672 163.122 91.8371 166.957C91.0608 168.292 90.4969 169.726 89.8375 171.117C89.1782 172.508 88.4061 173.876 87.2893 174.97C86.043 176.19 84.4263 177.013 83.1376 178.191C82.4936 178.787 81.9296 179.466 81.6059 180.256C81.2821 181.046 81.1937 181.949 81.4945 182.75C81.7013 183.3 82.0793 183.782 82.5458 184.161C83.0123 184.539 83.5637 184.816 84.1423 185.008C85.298 185.395 86.5443 185.452 87.7676 185.52L87.7613 185.518Z" fill="white"/>
<path d="M76.3787 185.283C73.1871 185.353 70.029 185.897 66.9098 186.511C63.9216 187.099 60.9472 187.753 57.9952 188.49C53.0142 189.734 48.0271 191.224 42.8784 191.328C41.5235 191.354 40.1589 191.285 38.8381 190.994C37.5173 190.703 36.239 190.186 35.1793 189.382C33.5606 188.154 32.5315 186.302 32.1507 184.367C31.7698 182.431 32.0024 180.416 32.5928 178.529C33.7743 174.754 36.3079 171.521 38.3827 168.113C39.5615 166.176 40.6017 164.162 41.8765 162.28C43.1513 160.398 44.6865 158.633 46.6527 157.403C49.3318 155.727 52.6731 155.159 55.864 155.458C59.0548 155.757 62.1127 156.875 64.9269 158.338C68.8997 160.402 72.5278 163.243 74.8247 166.948C76.4365 169.551 77.366 172.528 79.25 174.961C80.2644 176.271 81.5476 177.402 82.3831 178.818C82.805 179.525 83.1141 180.305 83.1859 181.116C83.2576 181.927 83.0814 182.77 82.601 183.444C82.2842 183.89 81.8442 184.25 81.3526 184.516C80.8611 184.781 80.3187 184.956 79.7652 185.065C78.6512 185.285 77.5164 185.251 76.385 185.277L76.3787 185.283ZM58.5452 58.855C58.0968 53.722 58.1971 48.5605 58.0021 43.4128C57.8086 38.4633 57.3295 33.5164 57.5043 28.5661C57.6825 23.5324 58.5696 18.4325 60.9256 13.9088C63.2817 9.38515 67.1083 5.55823 71.7765 3.16458C76.1629 0.91267 81.2218 -0.049692 86.2124 0.00196947C92.9799 0.0721761 99.764 2.01676 105.243 5.79335C108.679 8.15918 111.569 11.2092 113.848 14.6116C115.793 17.5159 117.304 20.6878 118.252 24.0166C120.197 30.8386 119.735 38.0235 120.114 45.076C120.472 51.7602 121.597 58.4285 121.214 65.1113C121.13 66.5685 120.966 68.0481 120.286 69.3502C119.623 70.6186 118.498 71.6386 117.205 72.3419C115.912 73.0453 114.457 73.4454 112.986 73.6613C110.043 74.0931 107.033 73.8083 104.068 74.07C99.7654 74.4495 95.6611 75.9675 91.3911 76.5961C86.3085 77.3445 81.1166 76.8146 75.9707 76.6186C73.9098 76.5404 71.842 76.5159 69.7964 76.2715C67.7509 76.0271 65.7095 75.5562 63.8895 74.6329C62.7755 74.0647 61.7361 73.3249 60.8992 72.4141C60.0623 71.5034 59.4231 70.4272 59.105 69.2502C58.6266 67.4931 58.8787 65.6432 58.8856 63.8277C58.8926 62.168 58.6893 60.5141 58.5375 58.8603L58.5452 58.855Z" fill="white"/>
<path d="M66.6428 56.8773C65.9145 57.745 65.4397 58.7895 65.1528 59.8671C64.866 60.9447 64.7616 62.058 64.7163 63.1681C64.6272 65.3889 64.7692 67.652 64.1523 69.7953C63.4909 72.087 62.0107 74.0713 60.5611 76.0066C58.0512 79.358 55.5134 82.7955 54.2762 86.7376C53.5263 89.1253 53.2764 91.6541 53.5465 94.1325C50.7372 98.0575 48.3038 102.226 46.2896 106.571C43.2359 113.156 41.1402 120.167 40.4029 127.328C39.5005 136.099 40.68 145.12 44.3206 153.223C46.9524 159.082 50.8778 164.446 55.9381 168.62C58.5107 170.743 61.3688 172.555 64.4322 173.983C75.0241 178.936 88.1135 178.944 98.5292 173.665C103.972 170.906 108.568 166.871 112.997 162.789C115.665 160.33 118.319 157.813 120.354 154.857C124.272 149.166 125.637 142.249 126.485 135.494C127.968 123.683 128.015 111.207 122.572 100.498C120.692 96.8041 118.205 93.4189 115.205 90.4699C114.408 85.317 112.834 80.272 110.546 75.5397C108.896 72.1254 106.878 68.8754 105.345 65.4127C104.715 63.9907 104.161 62.5349 103.47 61.1427C102.778 59.7505 101.91 58.4106 100.738 57.3443C99.5381 56.2514 98.0433 55.4778 96.4656 54.9824C94.8879 54.487 93.2281 54.2625 91.571 54.183C88.2534 54.024 84.9289 54.4366 81.6106 54.3115C78.9683 54.2121 76.3345 53.771 73.6943 53.9194C72.3742 53.9936 71.0556 54.2174 69.8302 54.691C68.6048 55.1645 67.4755 55.8944 66.6511 56.8767L66.6428 56.8773Z" fill="#09DD46"/>
<g filter="url(#filter0_f_2027_157)">
<path d="M61.7103 59.3362C64.0135 60.6906 66.0807 62.3524 67.8164 64.2485C69.4268 66.008 70.7963 68.0029 72.8989 69.306C74.384 70.226 76.1678 70.7446 77.9773 70.902C80.1022 71.0868 82.2522 70.7879 84.3006 70.2602C86.1992 69.7709 88.0345 69.0828 89.7187 68.1737C92.92 66.4436 95.595 63.9075 99.118 62.7703C99.8887 62.522 100.691 62.3445 101.434 62.0382C102.177 61.732 102.876 61.2732 103.231 60.6241C103.579 60.0006 103.558 59.2807 103.669 58.5956C103.788 57.8635 104.055 57.1546 104.201 56.4262C104.347 55.6977 104.365 54.9181 104.006 54.2482C103.708 53.693 103.167 53.255 102.544 52.9762C101.921 52.6974 101.221 52.5711 100.522 52.5406C99.1256 52.4796 97.7457 52.7938 96.3532 52.9054C94.5082 53.0531 92.6506 52.8444 90.7993 52.8932C88.4961 52.9542 86.2264 53.4118 83.9246 53.5064C81.2984 53.615 78.6791 53.2513 76.0515 53.1708C74.9153 53.1354 73.7713 53.1525 72.6511 53.3252C71.5308 53.4978 70.4315 53.8267 69.4832 54.3782C68.5641 54.9132 67.8143 55.6392 66.9718 56.2633C66.5506 56.5756 66.1029 56.8642 65.6114 57.0838C65.1198 57.3035 64.5809 57.4529 64.0309 57.4761C63.7475 57.4883 63.4614 57.467 63.1815 57.5048C62.9467 57.5394 62.7221 57.6144 62.5205 57.7254C62.319 57.8365 62.1446 57.9814 62.0073 58.1518C61.87 58.3223 61.7726 58.5148 61.7206 58.7184C61.6687 58.922 61.6633 59.1326 61.7048 59.3381L61.7103 59.3362Z" fill="white"/>
</g>
<path d="M67.7065 29.4225C66.4672 29.4868 65.2801 30.0319 64.3729 30.8379C63.4657 31.644 62.8272 32.7004 62.4332 33.8211C61.6464 36.0624 61.8239 38.4918 62.0015 40.8417C62.1637 42.9757 62.3287 45.1502 63.1691 47.1351C63.5889 48.1273 64.1786 49.0559 64.9654 49.8269C65.7521 50.5978 66.7422 51.1793 67.8325 51.4389C68.856 51.6827 69.9477 51.6323 70.9537 51.3316C71.9598 51.031 72.8782 50.4839 73.6315 49.7831C74.7316 48.7598 75.4717 47.4213 75.8964 46.0145C76.3211 44.6077 76.4422 43.132 76.4199 41.6696C76.3921 39.839 76.1414 38.0003 75.5385 36.2624C74.9356 34.5245 73.9747 32.8825 72.6331 31.5691C71.9835 30.9333 71.242 30.3736 70.4051 29.9816C69.5682 29.5895 68.6346 29.3689 67.7037 29.4166L67.7065 29.4225Z" fill="url(#paint0_radial_2027_157)"/>
<path d="M89.6506 29.4225C87.715 30.681 86.0928 32.4527 85.2991 34.5556C84.2993 37.2062 84.6822 40.1721 85.6472 42.8347C86.6358 45.5615 88.2887 48.1598 90.7854 49.797C92.0338 50.6157 93.4785 51.1767 94.9838 51.3469C96.489 51.5171 98.0542 51.284 99.3979 50.6183C101.036 49.8063 102.286 48.3843 103.062 46.7901C103.837 45.1958 104.169 43.4321 104.272 41.6769C104.411 39.4416 104.174 37.1691 103.401 35.0536C102.562 32.7554 101.034 30.6359 98.8946 29.3132C97.8223 28.6522 96.6025 28.1979 95.3368 28.0316C94.071 27.8654 92.7572 27.9899 91.5659 28.4304C90.8871 28.6821 90.2521 29.0311 89.6513 29.4239L89.6506 29.4225Z" fill="url(#paint1_radial_2027_157)"/>
<path d="M67.2945 48.4923L63.7186 51.5953C63.0892 52.198 62.4584 52.8431 62.1764 53.6485C61.9258 54.3638 61.9731 55.1407 61.8492 55.8872C61.8074 56.1428 61.7447 56.3971 61.7434 56.6555C61.7411 56.7849 61.7594 56.914 61.7977 57.0383C61.8373 57.1621 61.9021 57.2787 61.9961 57.3734C62.1507 57.5304 62.3707 57.6158 62.5921 57.6582C62.8135 57.7006 63.0411 57.7059 63.266 57.7291C64.2798 57.8331 65.2141 58.3007 66.0538 58.8517L68.5254 60.5638C70.4262 61.7123 72.698 62.223 74.949 62.3044C77.1999 62.3859 79.4453 62.0594 81.6538 61.6388C83.4083 61.305 85.1586 60.9102 86.8233 60.285C89.3737 59.3286 91.672 57.8562 93.8679 56.2965C94.8656 55.5878 95.8494 54.8572 96.7455 54.0346C97.0497 53.7551 97.3442 53.465 97.6701 53.2094C97.9959 52.9537 98.358 52.7312 98.7604 52.608C99.3731 52.4205 100.039 52.4742 100.674 52.5749C101.152 52.651 101.632 52.7537 102.116 52.7338C102.359 52.7245 102.602 52.6848 102.826 52.5987C103.051 52.5126 103.26 52.3801 103.413 52.2013C103.614 51.9622 103.723 51.6649 103.721 51.3588C103.723 51.0555 103.624 50.7561 103.464 50.4945C103.14 49.9713 102.581 49.6182 101.998 49.3718C101.2 49.0341 100.337 48.8685 99.4873 48.6724C96.8799 48.0737 94.3455 47.1888 91.9428 46.0536C90.7481 45.4893 89.5867 44.864 88.4115 44.2653C87.2028 43.6493 85.9711 43.0572 84.6587 42.679C81.7255 41.8332 78.5179 42.1108 75.6236 43.0672C72.407 44.1295 69.4988 46.0231 67.2924 48.4903L67.2945 48.4923Z" fill="white"/>
<path d="M94.1149 34.9827C93.3874 35.0324 92.6779 35.2689 92.061 35.6451C91.4442 36.0213 90.9171 36.516 90.5035 37.0889C89.6771 38.2334 89.313 39.6369 89.2552 41.0231C89.2113 42.0643 89.3318 43.1194 89.6952 44.103C90.0586 45.0865 90.6699 45.9972 91.5145 46.6615C92.3778 47.3417 93.4751 47.7504 94.5953 47.8007C95.7156 47.8511 96.8512 47.5444 97.7702 46.9351C98.5033 46.4496 99.0945 45.7813 99.5157 45.0322C99.9369 44.2831 100.191 43.4539 100.306 42.6114C100.511 41.1232 100.279 39.5693 99.5561 38.2354C98.8327 36.9015 97.6066 35.8027 96.1257 35.2841C95.4851 35.0589 94.7959 34.9423 94.1149 34.9887V34.9827Z" fill="#09DD46"/>
<g filter="url(#filter1_f_2027_157)">
<path d="M95.8515 39.5231C95.2485 39.7496 94.294 39.6072 94.0301 40.1702C93.8735 40.504 94.0949 41.053 94.4499 41.1901C95.1685 41.4683 96.2824 40.965 96.5735 40.2795C96.6988 39.9814 96.5087 39.5112 96.1975 39.3853C96.0826 39.339 95.9678 39.478 95.8522 39.5218L95.8515 39.5231Z" fill="#09DD46"/>
</g>
<g filter="url(#filter2_f_2027_157)">
<path d="M98.6147 41.0132C99.4223 40.2449 98.0396 38.2049 96.9611 37.3704C96.1799 36.7657 93.9046 36.1318 94.0021 36.7908C94.0995 37.4499 95.116 38.2917 95.8088 38.9348C96.6527 39.7263 98.2317 41.3788 98.6147 41.0132Z" fill="url(#paint2_linear_2027_157)"/>
</g>
<g filter="url(#filter3_f_2027_157)">
<path d="M96.3737 23.9669C96.0416 24.3643 95.7415 24.7962 95.5034 25.2717C96.9976 25.5777 98.4276 26.1632 99.7018 26.9692C102.17 28.5284 104.044 30.8081 105.359 33.3441C105.665 33.0209 105.945 32.6739 106.186 32.2884C104.864 29.647 102.952 27.258 100.399 25.6453C99.1719 24.8703 97.8052 24.2848 96.3744 23.9696L96.3737 23.9669Z" fill="url(#paint3_linear_2027_157)"/>
</g>
<g filter="url(#filter4_f_2027_157)">
<path d="M67.5658 25.2618C67.3973 25.2585 67.2337 25.273 67.0645 25.2803L66.7373 25.2989C67.7211 25.3836 68.6993 25.6353 69.5877 26.0142C70.7992 26.5308 71.8672 27.268 72.8078 28.1071C74.5512 29.6603 75.8469 31.5777 76.7242 33.6111C76.5099 32.0746 76.0245 30.5835 75.2885 29.2006C74.9446 28.8231 74.5881 28.4522 74.201 28.1078C73.2611 27.2693 72.1917 26.5328 70.9809 26.0148C69.9226 25.5625 68.7432 25.281 67.5651 25.2611L67.5658 25.2618Z" fill="url(#paint4_linear_2027_157)"/>
</g>
<path d="M64.7183 39.1918C64.4593 40.6794 64.4495 42.2399 64.987 43.6579C65.3351 44.5944 65.9269 45.4442 66.6385 46.1748C67.105 46.653 67.6327 47.0874 68.251 47.3689C68.8693 47.6504 69.585 47.7703 70.2492 47.612C70.8619 47.4663 71.3994 47.0888 71.7949 46.6205C72.1903 46.1522 72.4549 45.5919 72.6429 45.0177C73.1978 43.3221 73.1094 41.4663 72.5579 39.7694C72.1562 38.5328 71.4913 37.34 70.4504 36.5061C69.954 36.1087 69.3726 35.7974 68.7412 35.6537C68.1097 35.51 67.4253 35.5444 66.8348 35.7994C66.179 36.0829 65.6707 36.6227 65.3379 37.23C65.0051 37.8374 64.8345 38.5149 64.7169 39.1905L64.7183 39.1918Z" fill="#09DD46"/>
<g filter="url(#filter5_f_2027_157)">
<path d="M68.0242 38.1155C68.1926 38.5354 68.758 38.6878 69.0685 39.0262C69.37 39.3554 69.6861 39.6952 69.8518 40.1025C70.1686 40.8814 69.5385 42.0365 70.1999 42.5862C70.4074 42.7584 70.823 42.7624 71.027 42.5862C71.8242 41.8961 71.6467 40.5039 71.332 39.523C71.0465 38.6328 70.3385 37.7903 69.4661 37.3671C69.0622 37.1717 68.4565 37.0094 68.1112 37.2876C67.8884 37.4664 67.9204 37.8572 68.0242 38.1155Z" fill="url(#paint5_linear_2027_157)"/>
</g>
<path d="M130.974 97.7005C135.211 100.943 137.899 105.838 138.73 110.949C139.379 114.936 138.957 119.026 138.013 122.958C137.069 126.891 135.61 130.692 134.161 134.483C133.584 135.995 133.004 137.521 132.775 139.114C132.545 140.708 132.691 142.396 133.499 143.809C134.425 145.429 136.153 146.544 138.012 147.07C139.846 147.588 141.827 147.577 143.685 147.137C145.542 146.697 147.275 145.837 148.787 144.72C152.627 141.883 154.944 137.467 155.841 132.922C156.738 128.377 156.326 123.683 155.493 119.126C154.356 112.913 152.442 106.84 150.007 100.973C148.215 96.658 146.119 92.4158 143.19 88.7067C140.324 85.0772 136.71 82.0219 133.902 78.3513C131.951 75.8013 130.388 72.9533 128.05 70.7173C126.88 69.5993 125.516 68.6429 123.97 68.0713C122.424 67.4997 120.689 67.3321 119.093 67.76C116.99 68.323 115.263 69.8993 114.356 71.7883C113.449 73.6772 113.282 75.8437 113.638 77.8949C114.097 80.5409 115.369 82.9968 116.803 85.3064C118.423 87.9139 120.299 90.4242 122.746 92.3628C125.299 94.3862 128.387 95.7208 130.975 97.7011L130.974 97.7005Z" fill="white"/>
<g opacity="0.25" filter="url(#filter6_f_2027_157)">
<path d="M54.9547 88.5226C55.6619 89.532 54.515 93.0118 70.9992 90.7844C70.9992 90.7844 68.1044 91.0871 65.2505 91.7144C60.8142 93.1271 56.9486 94.7061 53.9669 96.7977C51.0126 98.8655 48.85 101.564 46.1392 103.883C46.1392 103.883 50.5288 96.2526 51.6226 93.9563C52.7164 91.66 51.4394 91.7706 52.3057 88.3835C53.1721 84.9964 55.2898 81.7556 55.2898 81.7556C55.2898 81.7556 53.5603 86.531 54.9547 88.5219V88.5226Z" fill="url(#paint6_radial_2027_157)"/>
</g>
<g opacity="0.2" filter="url(#filter7_f_2027_157)">
<path d="M76.3663 82.8577L75.881 85.7348C75.7836 86.2051 75.6756 86.6754 75.4911 87.1211C75.3066 87.5668 75.0428 87.9901 74.6696 88.3106C74.3423 88.5915 73.9427 88.7849 73.5417 88.9597C71.9765 89.6419 70.3013 90.0943 68.5928 90.2976L70.6362 90.4751C71.0644 90.5195 71.494 90.5692 71.9118 90.6712C72.3295 90.7732 72.7368 90.9361 73.0842 91.1712C73.4658 91.4361 73.7651 91.7991 73.9893 92.1952C74.4349 92.9847 74.5839 93.8927 74.6668 94.7782C74.7712 95.9194 74.7796 97.0699 74.6898 98.2118C74.7705 97.4474 74.939 96.6911 75.1911 95.9612C75.6457 94.6458 76.3774 93.4125 77.3633 92.3939C77.7546 91.9899 78.1849 91.619 78.6583 91.3024C80.1257 90.3288 81.9228 89.9128 83.6963 90.136C81.8976 90.2057 80.1286 89.6834 78.6876 88.657C77.9621 88.1371 77.3299 87.4894 76.8913 86.733C76.21 85.5476 76.0233 84.1615 76.3684 82.8511L76.3663 82.8577Z" fill="url(#paint7_radial_2027_157)"/>
</g>
<g opacity="0.1" filter="url(#filter8_f_2027_157)">
<path d="M72.8963 105.708C73.4756 108.749 73.8734 111.851 74.0857 114.983C74.3857 119.408 74.3137 123.865 74.486 128.304C74.6273 132.071 74.9522 135.877 74.4785 139.591C74.2524 141.363 73.8461 143.09 73.2754 144.708C73.1848 144.09 73.1184 143.466 73.0766 142.839C72.8756 139.827 73.2433 136.806 73.3677 133.786C73.5852 128.493 73.054 123.196 72.8379 117.91C72.6719 113.845 72.6915 109.77 72.8968 105.708L72.8963 105.708Z" fill="#09DD46"/>
</g>
<path d="M173.378 168.189C172.911 169.328 172.245 170.393 171.417 171.327C169.59 173.39 167.053 174.752 164.527 175.977C160.217 178.066 155.753 179.899 151.702 182.413C148.988 184.096 146.483 186.073 144.141 188.203C142.138 190.024 140.238 191.969 137.992 193.513C135.725 195.07 133.104 196.198 130.34 196.593C126.977 197.073 123.503 196.452 120.384 195.16C118.199 194.254 116.098 192.959 114.84 191.034C113.577 189.101 113.289 186.736 113.285 184.461C113.28 180.436 114.064 176.446 114.802 172.49C115.414 169.197 115.999 165.897 116.375 162.572C117.059 156.525 117.055 150.416 116.598 144.349C116.528 143.333 116.432 142.307 116.592 141.3C116.752 140.293 117.188 139.289 117.999 138.624C118.749 138.01 119.753 137.739 120.742 137.688C121.731 137.636 122.715 137.785 123.694 137.921C126.001 138.241 128.325 138.494 130.58 139.058C132.002 139.414 133.388 139.893 134.807 140.257C137.177 140.866 139.657 141.158 142.095 140.887C144.72 140.596 147.268 139.657 149.91 139.718C150.994 139.744 152.068 139.938 153.103 140.248C154.157 140.565 155.198 141.018 155.973 141.768C156.562 142.338 156.973 143.057 157.282 143.802C157.742 144.91 157.989 146.091 158.095 147.279C158.189 148.331 158.173 149.394 158.383 150.432C158.727 152.137 159.669 153.692 160.839 155.025C162.01 156.357 163.415 157.489 164.805 158.607C166.197 159.719 167.597 160.829 169.099 161.804C169.803 162.263 170.53 162.692 171.199 163.195C171.868 163.699 172.484 164.286 172.902 164.993C173.469 165.954 173.642 167.118 173.377 168.19L173.378 168.189Z" fill="url(#paint8_linear_2027_157)"/>
<g filter="url(#filter9_f_2027_157)">
<path d="M171.208 166.102C170.777 167.129 170.173 168.082 169.418 168.923C167.746 170.787 165.429 172.005 163.126 173.102C159.19 174.977 155.117 176.625 151.415 178.888C148.94 180.4 146.653 182.177 144.51 184.094C142.678 185.732 140.941 187.482 138.894 188.868C136.819 190.272 134.425 191.283 131.906 191.636C128.835 192.067 125.667 191.508 122.814 190.347C120.825 189.538 118.903 188.38 117.751 186.638C116.605 184.905 116.338 182.777 116.331 180.729C116.322 177.109 117.039 173.529 117.716 169.968C118.278 167.007 118.813 164.041 119.153 161.051C119.773 155.614 119.744 150.124 119.356 144.668C119.292 143.754 119.217 142.831 119.365 141.926C119.512 141.021 119.907 140.12 120.636 139.522C121.321 138.961 122.24 138.715 123.143 138.67C124.046 138.625 124.944 138.764 125.837 138.888C127.942 139.183 130.065 139.405 132.124 139.91C133.423 140.23 134.689 140.66 135.985 140.989C138.15 141.538 140.414 141.8 142.641 141.556C145.036 141.293 147.366 140.45 149.777 140.505C150.766 140.528 151.748 140.703 152.695 140.981C153.657 141.264 154.609 141.666 155.316 142.348C155.849 142.861 156.218 143.51 156.511 144.176C156.947 145.167 157.23 146.227 157.253 147.302C157.277 148.424 157.019 149.551 157.179 150.662C157.309 151.565 157.71 152.416 158.223 153.185C158.737 153.955 159.361 154.649 159.98 155.345C161.176 156.689 162.375 158.058 163.874 159.09C165.581 160.265 167.607 160.951 169.371 162.049C169.897 162.376 170.406 162.746 170.776 163.228C171.085 163.639 171.286 164.114 171.362 164.614C171.437 165.114 171.385 165.624 171.21 166.102H171.208Z" fill="white"/>
</g>
<g opacity="0.25" filter="url(#filter10_f_2027_157)">
<path d="M56.8047 74.8856C56.7221 73.9347 55.2948 73.7924 54.6582 74.2664C54.1206 74.6674 53.6165 76.0354 54.0802 76.5708C54.8341 77.4383 56.9172 76.1901 56.8046 74.8869L56.8047 74.8856Z" fill="#09DD46"/>
</g>
<path d="M56.7521 70.5284L44.9703 84.5605C42.5105 87.4615 39.9922 90.385 38.3908 93.7867C37.015 96.7096 36.3647 99.8847 35.4213 102.96C34.3505 106.452 32.8968 109.828 31.2648 113.117C29.7574 116.154 28.0969 119.12 26.4329 122.083C25.2228 124.238 23.9925 126.441 23.5727 128.852C23.2413 130.756 23.4335 132.722 23.9445 134.591C24.4555 136.46 25.2674 138.241 26.1989 139.96C30.1445 147.295 36.0647 153.619 43.0772 158.456C46.259 160.651 49.6685 162.549 53.2437 164.103C55.1807 164.944 57.222 165.695 59.3511 165.73C60.4164 165.747 61.4914 165.581 62.4661 165.174C63.4409 164.766 64.3112 164.111 64.8911 163.261C65.6034 162.216 65.845 160.918 65.7023 159.68C65.5595 158.442 65.0513 157.261 64.3703 156.196C62.6994 153.598 60.078 151.719 57.55 149.856C52.0914 145.833 46.8105 141.59 41.7578 137.113C40.3305 135.848 38.9046 134.544 37.9076 132.951C36.9371 131.398 36.4121 129.63 36.057 127.855C35.0823 122.987 35.3329 117.866 37.0735 113.196C37.7544 111.369 38.654 109.625 39.5229 107.871C41.0268 104.831 42.452 101.734 44.4314 98.9515C46.8947 95.4876 50.1872 92.5535 52.1945 88.8325C53.8891 85.6931 54.5756 82.1615 55.2315 78.687L56.7521 70.5284V70.5284Z" fill="white"/>
<path d="M28.261 134.506C29.375 134.067 30.6268 133.987 31.8118 134.195C32.9968 134.403 34.1164 134.89 35.1141 135.534C37.1081 136.823 38.5869 138.699 40.0038 140.554C43.2566 144.816 46.3883 149.166 49.2255 153.688C51.5273 157.356 53.6425 161.144 56.3021 164.586C58.0385 166.832 59.997 168.917 61.7418 171.157C63.4866 173.397 65.0337 175.831 65.8079 178.52C66.8132 182.015 66.424 185.867 64.6751 189.086C63.4448 191.351 61.5587 193.293 59.2639 194.61C56.9691 195.927 54.2718 196.606 51.5941 196.511C47.3373 196.359 43.4481 194.335 39.4907 192.835C31.4282 189.78 22.6695 188.821 14.3584 186.442C11.8032 185.711 9.29259 184.846 6.72068 184.173C5.57885 183.875 4.41612 183.612 3.33695 183.147C2.25778 182.682 1.24823 181.988 0.648067 181.016C0.18437 180.265 -0.01197 179.38 0.000562385 178.508C0.0130947 177.637 0.227538 176.776 0.539454 175.957C1.16329 174.318 2.17075 172.835 2.85097 171.217C3.96148 168.574 4.1613 165.661 4.01161 162.818C3.86192 159.976 3.37803 157.159 3.17264 154.321C3.08212 153.053 3.04731 151.769 3.30144 150.522C3.55557 149.275 4.12022 148.055 5.08243 147.174C5.96944 146.361 7.14678 145.879 8.35197 145.639C9.55717 145.399 10.7993 145.389 12.0309 145.415C13.2626 145.441 14.4956 145.504 15.7238 145.409C16.9519 145.313 18.1836 145.051 19.2537 144.469C20.2702 143.917 21.1015 143.095 21.7908 142.195C22.4801 141.295 23.0371 140.31 23.608 139.338C24.1789 138.365 24.7693 137.396 25.5171 136.539C26.2649 135.682 27.1811 134.934 28.2624 134.507L28.261 134.506Z" fill="url(#paint9_linear_2027_157)"/>
<g filter="url(#filter11_f_2027_157)">
<path d="M30.0174 136.334C31.0304 135.946 32.1715 135.903 33.2361 136.133C34.3007 136.362 35.29 136.861 36.152 137.488C37.8772 138.756 39.0762 140.544 40.2277 142.303C42.9918 146.564 45.6932 150.87 48.2457 155.263C50.1791 158.57 52.0228 161.948 54.3983 164.986C55.9746 167.001 57.773 168.848 59.382 170.839C60.9911 172.831 62.4246 175 63.1369 177.418C64.0531 180.535 63.682 183.975 62.096 186.845C60.9476 188.914 59.2149 190.638 57.0928 191.821C54.9653 192.997 52.5282 193.569 50.0698 193.469C46.1723 193.298 42.6131 191.446 38.9439 190.19C31.9098 187.762 24.2859 187.436 17.0708 185.541C14.4842 184.873 11.9624 183.982 9.36338 183.359C8.21319 183.083 7.04281 182.858 5.95041 182.419C4.858 181.979 3.82896 181.299 3.23646 180.322C2.79574 179.596 2.61959 178.741 2.64674 177.902C2.6739 177.064 2.89739 176.246 3.20373 175.456C3.83174 173.888 4.81902 172.475 5.4526 170.902C6.41341 168.535 6.53177 165.932 6.35353 163.401C6.17529 160.869 5.71299 158.36 5.55077 155.828C5.47836 154.695 5.46721 153.549 5.70811 152.439C5.94901 151.329 6.45727 150.253 7.30599 149.451C8.22503 148.583 9.49219 148.11 10.7712 147.925C12.0502 147.739 13.3515 147.82 14.6388 147.929C15.9262 148.039 17.2184 148.176 18.5099 148.103C19.8014 148.029 21.1111 147.73 22.1791 147.038C23.1517 146.413 23.8821 145.499 24.4377 144.523C24.9933 143.547 25.3902 142.5 25.8135 141.465C26.2368 140.43 26.6956 139.397 27.3605 138.485C28.0254 137.572 28.9173 136.759 30.0104 136.342" fill="white"/>
</g>
<defs>
<filter id="filter0_f_2027_157" x="61.3917" y="52.2473" width="43.1931" height="18.9951" filterUnits="userSpaceOnUse" color-interpolation-filters="sRGB">
<feFlood flood-opacity="0" result="BackgroundImageFix"/>
<feBlend mode="normal" in="SourceGraphic" in2="BackgroundImageFix" result="shape"/>
<feGaussianBlur stdDeviation="0.142756" result="effect1_foregroundBlur_2027_157"/>
</filter>
<filter id="filter1_f_2027_157" x="93.8995" y="39.2965" width="2.79226" height="2.05117" filterUnits="userSpaceOnUse" color-interpolation-filters="sRGB">
<feFlood flood-opacity="0" result="BackgroundImageFix"/>
<feBlend mode="normal" in="SourceGraphic" in2="BackgroundImageFix" result="shape"/>
<feGaussianBlur stdDeviation="0.0397396" result="effect1_foregroundBlur_2027_157"/>
</filter>
<filter id="filter2_f_2027_157" x="93.8334" y="36.3454" width="5.18923" height="4.8854" filterUnits="userSpaceOnUse" color-interpolation-filters="sRGB">
<feFlood flood-opacity="0" result="BackgroundImageFix"/>
<feBlend mode="normal" in="SourceGraphic" in2="BackgroundImageFix" result="shape"/>
<feGaussianBlur stdDeviation="0.0828307" result="effect1_foregroundBlur_2027_157"/>
</filter>
<filter id="filter3_f_2027_157" x="95.4562" y="23.9197" width="10.7771" height="9.47168" filterUnits="userSpaceOnUse" color-interpolation-filters="sRGB">
<feFlood flood-opacity="0" result="BackgroundImageFix"/>
<feBlend mode="normal" in="SourceGraphic" in2="BackgroundImageFix" result="shape"/>
<feGaussianBlur stdDeviation="0.0236203" result="effect1_foregroundBlur_2027_157"/>
</filter>
<filter id="filter4_f_2027_157" x="66.6942" y="25.218" width="10.073" height="8.43616" filterUnits="userSpaceOnUse" color-interpolation-filters="sRGB">
<feFlood flood-opacity="0" result="BackgroundImageFix"/>
<feBlend mode="normal" in="SourceGraphic" in2="BackgroundImageFix" result="shape"/>
<feGaussianBlur stdDeviation="0.0215456" result="effect1_foregroundBlur_2027_157"/>
</filter>
<filter id="filter5_f_2027_157" x="67.7806" y="36.9752" width="3.98081" height="5.9055" filterUnits="userSpaceOnUse" color-interpolation-filters="sRGB">
<feFlood flood-opacity="0" result="BackgroundImageFix"/>
<feBlend mode="normal" in="SourceGraphic" in2="BackgroundImageFix" result="shape"/>
<feGaussianBlur stdDeviation="0.0818732" result="effect1_foregroundBlur_2027_157"/>
</filter>
<filter id="filter6_f_2027_157" x="45.9187" y="81.5351" width="25.3009" height="22.568" filterUnits="userSpaceOnUse" color-interpolation-filters="sRGB">
<feFlood flood-opacity="0" result="BackgroundImageFix"/>
<feBlend mode="normal" in="SourceGraphic" in2="BackgroundImageFix" result="shape"/>
<feGaussianBlur stdDeviation="0.110254" result="effect1_foregroundBlur_2027_157"/>
</filter>
<filter id="filter7_f_2027_157" x="68.3422" y="82.6005" width="15.6046" height="15.8619" filterUnits="userSpaceOnUse" color-interpolation-filters="sRGB">
<feFlood flood-opacity="0" result="BackgroundImageFix"/>
<feBlend mode="normal" in="SourceGraphic" in2="BackgroundImageFix" result="shape"/>
<feGaussianBlur stdDeviation="0.125283" result="effect1_foregroundBlur_2027_157"/>
</filter>
<filter id="filter8_f_2027_157" x="72.265" y="105.246" width="2.92311" height="39.9231" filterUnits="userSpaceOnUse" color-interpolation-filters="sRGB">
<feFlood flood-opacity="0" result="BackgroundImageFix"/>
<feBlend mode="normal" in="SourceGraphic" in2="BackgroundImageFix" result="shape"/>
<feGaussianBlur stdDeviation="0.230777" result="effect1_foregroundBlur_2027_157"/>
</filter>
<filter id="filter9_f_2027_157" x="114.805" y="137.136" width="58.1158" height="56.1706" filterUnits="userSpaceOnUse" color-interpolation-filters="sRGB">
<feFlood flood-opacity="0" result="BackgroundImageFix"/>
<feBlend mode="normal" in="SourceGraphic" in2="BackgroundImageFix" result="shape"/>
<feGaussianBlur stdDeviation="0.762713" result="effect1_foregroundBlur_2027_157"/>
</filter>
<filter id="filter10_f_2027_157" x="53.6937" y="73.7988" width="3.31958" height="3.26404" filterUnits="userSpaceOnUse" color-interpolation-filters="sRGB">
<feFlood flood-opacity="0" result="BackgroundImageFix"/>
<feBlend mode="normal" in="SourceGraphic" in2="BackgroundImageFix" result="shape"/>
<feGaussianBlur stdDeviation="0.102112" result="effect1_foregroundBlur_2027_157"/>
</filter>
<filter id="filter11_f_2027_157" x="1.39153" y="134.74" width="63.4904" height="59.9925" filterUnits="userSpaceOnUse" color-interpolation-filters="sRGB">
<feFlood flood-opacity="0" result="BackgroundImageFix"/>
<feBlend mode="normal" in="SourceGraphic" in2="BackgroundImageFix" result="shape"/>
<feGaussianBlur stdDeviation="0.626258" result="effect1_foregroundBlur_2027_157"/>
</filter>
<radialGradient id="paint0_radial_2027_157" cx="0" cy="0" r="1" gradientUnits="userSpaceOnUse" gradientTransform="translate(2670.14 3730.19) rotate(-2.29277) scale(173.266 403.503)">
<stop stop-color="#FEFEFC"/>
<stop offset="0.757" stop-color="#FEFEFC"/>
<stop offset="1" stop-color="#D4D4D4"/>
</radialGradient>
<radialGradient id="paint1_radial_2027_157" cx="0" cy="0" r="1" gradientUnits="userSpaceOnUse" gradientTransform="translate(4808.3 3906.81) rotate(-1.7219) scale(310.218 426.497)">
<stop stop-color="#FEFEFC"/>
<stop offset="0.757" stop-color="#FEFEFC"/>
<stop offset="1" stop-color="#D4D4D4"/>
</radialGradient>
<linearGradient id="paint2_linear_2027_157" x1="1565.98" y1="641.162" x2="1596.18" y2="679.313" gradientUnits="userSpaceOnUse">
<stop offset="1" stop-color="#09DD46"/>
</linearGradient>
<linearGradient id="paint3_linear_2027_157" x1="261.188" y1="1013.85" x2="394.503" y2="1157.22" gradientUnits="userSpaceOnUse">
<stop offset="1" stop-color="#09DD46"/>
</linearGradient>
<linearGradient id="paint4_linear_2027_157" x1="-190.655" y1="915.917" x2="-79.7957" y2="1043.61" gradientUnits="userSpaceOnUse">
<stop offset="1" stop-color="#09DD46"/>
</linearGradient>
<linearGradient id="paint5_linear_2027_157" x1="667.303" y1="773.779" x2="705.018" y2="817.951" gradientUnits="userSpaceOnUse">
<stop offset="1" stop-color="#09DD46"/>
</linearGradient>
<radialGradient id="paint6_radial_2027_157" cx="0" cy="0" r="1" gradientUnits="userSpaceOnUse" gradientTransform="translate(-5559.92 3808.52) rotate(180) scale(475.598 462.657)">
<stop offset="1" stop-color="#09DD46"/>
</radialGradient>
<radialGradient id="paint7_radial_2027_157" cx="0" cy="0" r="1" gradientUnits="userSpaceOnUse" gradientTransform="translate(4029.22 3773.6) scale(163.798 178.12)">
<stop offset="1" stop-color="#09DD46"/>
</radialGradient>
<linearGradient id="paint8_linear_2027_157" x1="26730" y1="22087.6" x2="29546" y2="17434" gradientUnits="userSpaceOnUse">
<stop offset="1" stop-color="white"/>
</linearGradient>
<linearGradient id="paint9_linear_2027_157" x1="8170.32" y1="18960.6" x2="11061.2" y2="24115.3" gradientUnits="userSpaceOnUse">
<stop offset="1" stop-color="white"/>
</linearGradient>
</defs>
</svg>
