<svg width="46" height="37" viewBox="0 0 46 37" fill="none" xmlns="http://www.w3.org/2000/svg">
<path d="M44.3352 0H1.64205C1.20655 0 0.788887 0.173001 0.480944 0.480944C0.173001 0.788888 0 1.20655 0 1.64205V34.483C0 34.9185 0.173001 35.3361 0.480944 35.6441C0.788887 35.952 1.20655 36.125 1.64205 36.125H44.3352C44.7707 36.125 45.1884 35.952 45.4963 35.6441C45.8043 35.3361 45.9773 34.9185 45.9773 34.483V1.64205C45.9773 1.20655 45.8043 0.788888 45.4963 0.480944C45.1884 0.173001 44.7707 0 44.3352 0ZM23.9964 21.0007C23.7083 21.2248 23.3537 21.3464 22.9886 21.3464C22.6236 21.3464 22.269 21.2248 21.9808 21.0007L5.90623 8.49861L7.92184 5.90623L22.9886 17.6243L38.0554 5.90623L40.071 8.49861L23.9964 21.0007Z" fill="white"/>
</svg>
