<svg width="154" height="154" viewBox="0 0 154 154" fill="none" xmlns="http://www.w3.org/2000/svg">
<path d="M127.05 0H26.95C12.0659 0 0 12.0659 0 26.95V127.05C0 141.934 12.0659 154 26.95 154H127.05C141.934 154 154 141.934 154 127.05V26.95C154 12.0659 141.934 0 127.05 0Z" fill="white"/>
<path d="M34.6499 109.181V44.0195C34.6499 43.5531 34.8835 43.3199 35.3506 43.3199C40.422 43.1866 46.8615 43.12 54.6689 43.12C63.8776 43.12 70.6173 45.1855 74.888 49.3164C79.2254 53.4472 81.3942 58.5442 81.3942 64.6073C81.3942 72.1362 78.725 77.7329 73.3866 81.3974C68.0482 85.0619 61.3418 86.8942 53.2675 86.8942H47.3619V109.081C47.3619 109.614 47.095 109.881 46.5612 109.881H35.4507C34.9168 109.881 34.6499 109.647 34.6499 109.181ZM47.3619 52.7143V77.2998C48.2962 77.4331 50.4649 77.4997 53.8681 77.4997C58.339 77.4997 61.9424 76.5336 64.6783 74.6014C67.481 72.6026 68.8823 69.3712 68.8823 64.9071C68.8823 60.9761 67.6478 57.9446 65.1788 55.8125C62.7765 53.6804 59.2732 52.6144 54.6689 52.6144C53.5345 52.6144 52.4 52.6477 51.2656 52.7143C50.198 52.7143 49.2971 52.7143 48.5631 52.7143C47.8958 52.7143 47.4954 52.7143 47.3619 52.7143Z" fill="black"/>
<path d="M116.316 72.7025C112.579 70.3706 108.676 69.2046 104.605 69.2046C102.27 69.2046 100.535 69.6377 99.4003 70.5038C98.3326 71.37 97.7988 72.4027 97.7988 73.602C97.7988 74.8013 98.2659 75.8673 99.2001 76.8001C100.134 77.6663 102.103 78.699 105.106 79.8983C110.644 82.0304 114.515 84.2957 116.717 86.6943C118.985 89.0262 120.12 92.0578 120.12 95.7889C120.12 100.32 118.385 103.984 114.915 106.782C111.512 109.514 106.874 110.88 101.002 110.88C95.1296 110.88 90.325 109.814 86.5881 107.682C86.1878 107.549 85.9876 107.215 85.9876 106.682V97.388C85.9876 97.1215 86.0543 96.9549 86.1878 96.8883C86.388 96.755 86.5548 96.755 86.6882 96.8883C91.0257 100.086 95.6634 101.685 100.601 101.685C102.937 101.685 104.705 101.286 105.906 100.486C107.174 99.62 107.808 98.5206 107.808 97.1881C107.808 95.7889 107.308 94.6229 106.307 93.6902C105.306 92.6907 103.337 91.6247 100.401 90.492C95.0628 88.4266 91.326 86.2279 89.1906 83.8959C87.122 81.4974 86.0877 78.4991 86.0877 74.9012C86.0877 70.7704 87.6558 67.3057 90.7921 64.5074C93.9284 61.709 98.3993 60.3099 104.205 60.3099C109.61 60.3099 113.781 61.0428 116.717 62.5086C117.05 62.7084 117.217 63.1415 117.217 63.8078V72.1029C117.217 72.9024 116.917 73.1023 116.316 72.7025Z" fill="black"/>
</svg>
