<svg width="241" height="119" viewBox="0 0 241 119" fill="none" xmlns="http://www.w3.org/2000/svg">
<path d="M41.7543 76.0277C49.0487 76.0277 54.4943 74.6825 57.9398 72.0308C61.3485 69.4062 63.7028 64.8591 64.9368 58.5163C66.0873 52.5877 65.649 48.4481 63.6345 46.2141C61.5746 43.9324 57.1212 42.7752 50.3982 42.7752H38.741L32.2786 76.0277H41.7543ZM3.627 116.989C3.08589 116.989 2.57199 116.747 2.22797 116.329C1.88336 115.911 1.74369 115.361 1.84708 114.829L18.9739 26.7094C19.1396 25.8575 19.8863 25.2421 20.7545 25.2421H57.6672C69.2681 25.2421 77.9028 28.392 83.3302 34.6054C88.7867 40.8514 90.4717 49.5823 88.3381 60.555C87.4699 65.0254 85.9765 69.1771 83.8998 72.8941C81.8206 76.6154 79.0727 80.0585 75.7311 83.1299C71.7312 86.8735 67.204 89.5881 62.2875 91.1854C57.4489 92.7616 51.2349 93.5609 43.8184 93.5609H28.8717L24.6033 115.521C24.4376 116.373 23.6916 116.989 22.8234 116.989H3.627Z" fill="#09DD46"/>
<path d="M40.2364 44.589H50.3983C58.5125 44.589 61.3311 46.3695 62.2888 47.4306C63.8777 49.1923 64.1776 52.907 63.1564 58.1723C62.0089 64.0671 59.8819 68.2466 56.8336 70.5937C53.7127 72.9963 48.639 74.214 41.7545 74.214H34.4788L40.2364 44.589ZM57.6673 23.4283H20.754C19.0176 23.4283 17.5249 24.6592 17.1936 26.3636L0.0667237 114.483C-0.140046 115.547 0.139276 116.647 0.827905 117.483C1.51714 118.319 2.54374 118.803 3.62716 118.803H22.8229C24.5599 118.803 26.0527 117.572 26.384 115.867L30.367 95.3746H43.8186C51.4255 95.3746 57.8294 94.5451 62.8505 92.9097C68.0143 91.232 72.7652 88.3874 76.9701 84.4551C80.4477 81.2556 83.3123 77.6644 85.4827 73.7799C87.6538 69.8942 89.2137 65.561 90.1187 60.9009C92.3648 49.3507 90.5402 40.1017 84.6962 33.4125C78.909 26.7874 69.8148 23.4283 57.6673 23.4283ZM30.078 77.8415H41.7545C49.4939 77.8415 55.2586 76.3838 59.0464 73.4679C62.8348 70.5513 65.3898 65.6838 66.7174 58.8628C67.9877 52.3139 67.4091 47.6924 64.9817 45.0001C62.5512 42.3079 57.6909 40.9614 50.3983 40.9614H37.2461L30.078 77.8415V77.8415ZM57.6673 27.0558C68.7718 27.0558 76.8728 29.97 81.9646 35.7988C87.0559 41.6277 88.5891 49.7637 86.5577 60.2092C85.7216 64.5121 84.3074 68.4462 82.3165 72.0102C80.3232 75.5767 77.7204 78.8379 74.504 81.7949C70.6709 85.382 66.4127 87.9382 61.7272 89.4605C57.0416 90.9871 51.0737 91.7471 43.8186 91.7471H27.3761L22.8229 115.175H3.62716L20.754 27.0558H57.6673" fill="#09DD46"/>
<path d="M132.352 93.5609C131.81 93.5609 131.297 93.3191 130.953 92.9007C130.607 92.4829 130.468 91.9334 130.571 91.4013L138.147 52.4118C138.868 48.7039 138.69 46.0425 137.647 44.9179C137.009 44.2305 135.091 43.0776 129.421 43.0776H115.695L106.17 92.093C106.004 92.9454 105.257 93.5609 104.389 93.5609H85.3446C84.8029 93.5609 84.2896 93.3191 83.945 92.9007C83.6004 92.4829 83.4607 91.9327 83.5641 91.4013L100.691 3.28155C100.857 2.42968 101.603 1.81421 102.471 1.81421H121.516C122.058 1.81421 122.571 2.05605 122.916 2.47382C123.26 2.8922 123.4 3.44177 123.297 3.97381L119.164 25.2421H133.929C145.177 25.2421 152.805 27.2252 157.247 31.305C161.776 35.467 163.189 42.1217 161.448 51.0866L153.479 92.093C153.313 92.9454 152.567 93.5609 151.699 93.5609H132.352Z" fill="#09DD46"/>
<path d="M121.516 -4.44055e-05H102.471C100.734 -4.44055e-05 99.2417 1.2309 98.9104 2.93524L81.7835 91.055C81.5767 92.1185 81.8561 93.2182 82.5453 94.0544C83.2345 94.8905 84.2611 95.3742 85.3446 95.3742H104.389C106.126 95.3742 107.619 94.1433 107.95 92.4389L117.19 44.8908H129.42C135.081 44.8908 136.269 46.1 136.317 46.152C136.66 46.5214 137.112 48.2324 136.367 52.0655L128.79 91.055C128.584 92.1185 128.863 93.2182 129.552 94.0544C130.241 94.8905 131.268 95.3742 132.352 95.3742H151.698C153.435 95.3742 154.928 94.1433 155.259 92.4389L163.227 51.4325C165.097 41.8068 163.498 34.5862 158.475 29.9695C153.681 25.5675 145.653 23.4279 133.929 23.4279H121.363L125.077 4.31976C125.283 3.25629 125.005 2.15593 124.315 1.32039C123.626 0.484237 122.599 -4.44055e-05 121.516 -4.44055e-05ZM121.516 3.6275L116.963 27.0554H133.929C144.604 27.0554 151.967 28.9188 156.02 32.6406C160.073 36.3649 161.287 42.3993 159.667 50.7409L151.698 91.7467H132.352L139.928 52.7578C140.79 48.3225 140.473 45.2971 138.976 43.6841C137.478 42.071 134.293 41.2633 129.42 41.2633H114.199L104.389 91.7467H85.3446L102.471 3.6275H121.516Z" fill="#09DD46"/>
<path d="M191.581 76.0277C198.876 76.0277 204.321 74.6825 207.767 72.0308C211.176 69.4068 213.53 64.8597 214.764 58.5163C215.915 52.5877 215.477 48.4481 213.462 46.2141C211.402 43.9324 206.948 42.7752 200.225 42.7752H188.568L182.106 76.0277H191.581ZM153.455 116.989C152.914 116.989 152.4 116.747 152.056 116.329C151.711 115.911 151.571 115.361 151.674 114.829L168.801 26.7094C168.967 25.8575 169.713 25.2421 170.582 25.2421H207.494C219.096 25.2421 227.73 28.392 233.158 34.6054C238.614 40.8508 240.299 49.5817 238.166 60.555C237.296 65.0254 235.804 69.1771 233.727 72.8941C231.648 76.6154 228.9 80.0585 225.558 83.1299C221.558 86.8735 217.031 89.5881 212.115 91.1854C207.276 92.7616 201.062 93.5609 193.645 93.5609H178.698L174.432 115.521C174.265 116.373 173.519 116.989 172.65 116.989H153.455Z" fill="#09DD46"/>
<path d="M190.063 44.589H200.225C208.34 44.589 211.158 46.3695 212.116 47.4306C213.705 49.1923 214.005 52.907 212.983 58.1717C211.836 64.0671 209.708 68.2466 206.661 70.5937C203.54 72.9963 198.466 74.214 191.582 74.214H184.306L190.063 44.589ZM207.494 23.4283H170.582C168.845 23.4283 167.353 24.6592 167.021 26.3636L149.894 114.483C149.688 115.547 149.967 116.647 150.656 117.483C151.345 118.319 152.371 118.803 153.455 118.803H172.651C174.387 118.803 175.88 117.572 176.212 115.867L180.194 95.3746H193.646C201.253 95.3746 207.656 94.5451 212.678 92.9097C217.841 91.232 222.593 88.3868 226.798 84.4539C230.276 81.255 233.139 77.6644 235.31 73.7799C237.481 69.8942 239.041 65.561 239.946 60.9009C242.192 49.3501 240.367 40.1011 234.523 33.4119C228.736 26.7874 219.642 23.4283 207.494 23.4283ZM179.906 77.8415H191.582C199.321 77.8415 205.086 76.3838 208.873 73.4679C212.662 70.5513 215.217 65.6838 216.544 58.8628C217.815 52.3139 217.237 47.6924 214.809 45.0001C212.378 42.3079 207.518 40.9614 200.225 40.9614H187.073L179.906 77.8415ZM207.494 27.0558C218.599 27.0558 226.7 29.97 231.792 35.7988C236.884 41.6277 238.416 49.7637 236.385 60.2092C235.549 64.5121 234.134 68.4462 232.144 72.0102C230.15 75.5767 227.547 78.8379 224.331 81.7949C220.498 85.382 216.24 87.9382 211.554 89.4605C206.869 90.9871 200.901 91.7471 193.646 91.7471H177.203L172.651 115.175H153.455L170.582 27.0558H207.494" fill="#09DD46"/>
</svg>
