<svg width="12" height="16" viewBox="0 0 12 16" fill="none" xmlns="http://www.w3.org/2000/svg">
<path d="M0.184996 7.30737C0.59247 7.15796 0.0899174 7.11722 0.0138478 7.82351C0.0137209 7.90424 0.0138464 8.25815 0.0138472 8.35322C0.013848 8.4483 0.293655 8.78786 0.293655 8.78786C0.458128 8.86965 1.19345 9.14172 1.70623 9.49415C2.42061 9.9844 2.37984 10.121 3.07807 10.5264L3.45761 10.8931C4.4207 11.4512 4.65338 12.0058 4.84499 12.1004L4.89927 12.1277C4.95847 12.1681 5.00709 12.2221 5.04106 12.2852C5.07562 12.348 5.09407 12.4183 5.09476 12.4899L5.34634 13.7726C5.34539 14.3828 5.76471 14.574 5.76471 14.8055C6.19541 15.2377 6.78013 15.4811 7.39027 15.4821L8.43883 15.484C9.04902 15.4851 9.63464 15.2438 10.0669 14.8131C10.4992 14.3825 10.7427 13.7977 10.7438 13.1876L10.7462 11.8622C10.7466 11.7696 10.774 11.6792 10.8252 11.6021C11.2332 10.9796 11.6192 9.80301 11.6215 8.53549C11.6218 8.33311 11.6183 8.15002 11.6121 7.98484C11.6108 7.94549 11.5988 7.90724 11.5774 7.87418C11.556 7.84111 11.5261 7.81448 11.4907 7.79712C11.4554 7.77976 11.416 7.77233 11.3768 7.77562C11.3375 7.77891 11.2999 7.7928 11.268 7.8158L11.2642 7.81851C10.9272 8.05071 10.5628 8.09895 10.3183 8.09852C10.0866 8.09853 9.85753 8.0501 9.64569 7.95632C9.58559 7.92961 9.52057 7.91575 9.45479 7.91563C9.38902 7.91552 9.32395 7.92914 9.26375 7.95564C9.04737 8.04817 8.81441 8.09567 8.57908 8.09525C8.34374 8.09483 8.11096 8.04649 7.89491 7.95318C7.83506 7.92661 7.77032 7.91282 7.70483 7.91271C7.63934 7.91259 7.57455 7.92614 7.5146 7.9525C7.30197 8.04458 7.07265 8.09188 6.84093 8.09146C6.60922 8.09105 6.38007 8.04292 6.16776 7.95009C6.10502 7.92217 6.03713 7.90769 5.96845 7.90756C5.89977 7.90744 5.83183 7.92168 5.76898 7.94937C5.55073 8.04582 5.31406 8.09351 5.07548 8.08912C4.85273 8.08872 4.49697 8.03375 4.22887 7.87028C4.17351 7.83726 4.11136 7.81726 4.04714 7.81178C3.98291 7.8063 3.91828 7.81548 3.85812 7.83864C3.83094 7.84892 3.80213 7.85919 3.77195 7.86919C3.67045 7.90153 3.56272 7.90935 3.45761 7.89198C2.93212 7.80955 2.472 7.62753 1.98718 7.43461C1.77598 7.35056 1.55773 7.26351 1.32833 7.18296C0.851616 7.01531 0.543485 7.05402 0.184996 7.30737Z" fill="#0AE448"/>
<path d="M7.63986 3.4806L7.63986 6.96532C7.62986 7.09054 7.60556 7.61451 6.93567 7.61331C6.28914 7.61215 6.24851 7.09159 6.23382 6.95628L6.23382 3.4806C6.23796 3.13643 6.45865 2.83502 6.93567 2.83588C7.41268 2.83673 7.63695 3.13642 7.63986 3.4806ZM4.22971 6.88559L4.00835 3.9856C4.00897 3.64197 3.76274 0.00102439 4.22971 0.00186167L4.97654 0.00186167C5.4416 0.0426097 5.50584 3.33542 5.50951 3.70867L5.69499 6.88659C5.60459 7.61092 5.1656 7.61013 4.97653 7.60979C4.355 7.60868 4.24034 7.01628 4.22971 6.88559ZM11.7768 4.42059L11.5298 6.84788C11.5034 7.51284 11.0598 7.6207 10.7822 7.6202C10.2827 7.61931 10.1146 7.25472 10.1153 6.89452L10.0382 4.42236C10.0449 4.02712 10.4331 3.70782 10.9088 3.70867C11.3844 3.70952 11.7682 4.0275 11.7768 4.42059ZM9.58426 3.4806L9.66103 6.91706C9.64345 7.17211 9.57827 7.61804 8.9437 7.61691C8.61772 7.61632 8.24795 7.49749 8.19707 6.93644L8.25318 3.48372C8.25789 3.12678 8.46548 2.83501 8.95227 2.83588C9.43907 2.83675 9.58083 3.12365 9.58426 3.4806Z" fill="#0AE448"/>
</svg>
