<svg width="219" height="219" viewBox="0 0 219 219" fill="none" xmlns="http://www.w3.org/2000/svg">
<path d="M2.90869 168.698C1.88213 168.185 1.19775 166.988 1.19775 165.619C1.19775 163.566 2.7376 162.026 4.79072 162.026C5.4751 162.026 6.15947 162.197 6.67275 162.539C10.4368 165.105 14.5431 166.303 18.136 166.303C22.0712 166.303 24.2954 164.592 24.2954 162.026V161.855C24.2954 158.775 20.0181 157.748 15.3985 156.38C9.58135 154.669 3.07978 152.273 3.07978 144.745V144.574C3.07978 137.046 9.23916 132.598 17.1095 132.598C21.3868 132.598 25.6642 133.795 29.5993 135.848C30.797 136.533 31.8235 137.73 31.8235 139.27C31.8235 141.323 30.1126 142.863 28.0595 142.863C27.3751 142.863 26.8618 142.692 26.1774 142.35C22.9267 140.639 19.6759 139.613 16.9384 139.613C13.3454 139.613 11.4634 141.323 11.4634 143.548V143.719C11.4634 146.627 15.7407 147.825 20.3603 149.365C26.1774 151.076 32.679 153.813 32.679 160.828V160.999C32.679 169.383 26.1774 173.489 17.9649 173.489C13.0032 173.489 7.52822 171.949 2.90869 168.698M68.0954 153.129C68.0954 145.43 62.9626 140.468 56.8032 140.468C50.6438 140.468 45.3399 145.601 45.3399 153.129V153.3C45.3399 160.828 50.6438 165.961 56.8032 165.961C62.9626 165.619 68.0954 160.828 68.0954 153.129ZM36.6142 137.217C36.6142 134.651 38.4962 132.598 41.0626 132.598C43.629 132.598 45.6821 134.651 45.6821 137.217V139.955C48.5907 135.848 52.697 132.598 59.0274 132.598C68.2665 132.598 77.3345 139.955 77.3345 152.958V153.129C77.3345 166.132 68.4376 173.489 59.0274 173.489C52.5259 173.489 48.4196 170.238 45.6821 166.645V180.504C45.6821 183.07 43.629 184.952 41.0626 184.952C38.6673 184.952 36.6142 183.07 36.6142 180.504V137.217ZM81.0985 137.046C81.0985 134.48 82.9806 132.427 85.547 132.427C88.1134 132.427 90.1665 134.48 90.1665 137.046V139.27C90.6798 135.848 96.1548 132.598 100.09 132.598C102.999 132.598 104.538 134.48 104.538 137.046C104.538 139.441 102.999 140.981 100.945 141.323C94.4438 142.521 89.9954 147.996 89.9954 155.866V168.87C89.9954 171.265 87.9423 173.318 85.3759 173.318C82.9806 173.318 80.9274 171.436 80.9274 168.87V137.046M108.645 137.046C108.645 134.48 110.698 132.427 113.264 132.427C115.831 132.427 117.884 134.48 117.884 137.046V168.87C117.884 171.436 115.831 173.318 113.264 173.318C110.698 173.318 108.645 171.436 108.645 168.87V137.046ZM121.819 137.217C121.819 134.651 123.872 132.598 126.438 132.598C129.005 132.598 131.229 134.651 131.229 137.217V139.099C133.795 135.506 137.731 132.598 144.061 132.598C153.3 132.598 158.604 138.586 158.604 147.654V168.87C158.604 171.436 156.551 173.318 153.984 173.318C151.418 173.318 149.194 171.436 149.194 168.87V150.391C149.194 144.232 145.943 140.81 140.468 140.81C134.993 140.81 131.229 144.403 131.229 150.563V168.87C131.229 171.436 129.176 173.318 126.438 173.318C123.872 173.318 121.819 171.436 121.819 168.87V137.217ZM182.215 165.79C175.884 165.79 170.581 160.999 170.581 153.129V152.958C170.581 145.259 175.884 140.297 182.215 140.297C188.545 140.297 194.02 145.43 194.02 152.958V153.129C194.02 160.657 188.545 165.79 182.215 165.79ZM198.469 132.769C195.902 132.769 193.849 134.822 193.849 137.388V140.126C190.77 136.02 186.663 132.769 179.991 132.769C170.409 132.769 161.17 140.126 161.17 153.3V153.471C161.17 166.474 170.409 174.002 179.991 174.002C186.663 174.002 190.941 170.752 193.849 167.159C193.336 174.345 188.888 177.938 181.017 177.938C176.398 177.938 172.292 176.74 168.527 174.858C168.014 174.687 167.501 174.516 166.817 174.516C164.592 174.516 162.881 176.227 162.881 178.28C162.881 179.991 163.908 181.188 165.448 181.873C170.409 184.268 175.371 185.466 181.188 185.466C188.545 185.466 194.192 183.755 197.956 180.162C201.377 176.911 203.259 171.949 203.259 165.277V137.217C203.088 134.651 201.035 132.769 198.469 132.769ZM117.884 121.648C117.884 124.043 115.831 126.096 113.264 126.096C110.698 126.096 108.645 124.043 108.645 121.648C108.645 119.252 110.698 117.199 113.264 117.199C115.831 117.199 117.884 119.252 117.884 121.648ZM141.837 92.0485C131.742 105.394 110.013 100.945 95.9837 101.459C95.9837 101.459 93.5884 101.63 91.022 101.972C91.022 101.972 92.0485 101.63 93.0751 101.116C102.827 97.8656 107.447 97.1813 113.435 94.1016C124.556 88.4555 135.677 76.3078 137.902 63.6469C133.624 75.7945 120.792 86.2313 108.987 90.5086C100.945 93.4172 86.4024 96.1547 86.4024 96.1547L85.8892 95.8125C75.9657 91.193 75.6235 70.1485 93.7595 63.4758C101.63 60.5672 109.158 62.107 117.713 60.225C126.781 58.1719 137.388 51.4992 141.666 42.7735C146.456 56.9742 152.274 78.7031 141.837 92.0485V92.0485ZM142.008 38.6672C140.81 41.4047 139.27 43.9711 137.559 46.1953C130.031 38.6672 119.595 34.0477 107.96 34.0477C85.2048 34.0477 66.7267 52.1836 66.7267 74.2547C66.7267 85.8891 71.8595 96.3258 79.9009 103.683L80.7563 104.538C79.2165 103.341 79.0454 101.116 80.2431 99.7477C81.4407 98.2078 83.6649 98.0367 85.2048 99.2344C86.7446 100.432 86.9157 102.656 85.7181 104.025C84.5204 105.565 82.2962 105.736 80.7563 104.538L81.4407 105.052C88.6267 110.869 97.8657 114.462 107.96 114.462C129.689 114.462 147.483 97.8656 149.023 77.1633C150.392 67.0688 147.312 54.0656 142.008 38.6672M214.038 135.506H212.499V137.559H214.038C214.552 137.559 215.065 137.217 215.065 136.533C215.065 135.848 214.552 135.506 214.038 135.506V135.506ZM214.894 140.639L213.354 138.244H212.327V140.639H211.472V134.822H213.867C214.894 134.822 215.749 135.506 215.749 136.533C215.749 137.902 214.552 138.244 214.209 138.244L215.749 140.639H214.894ZM213.525 133.282C211.13 133.282 209.077 135.164 209.077 137.559C209.077 139.955 211.13 141.837 213.525 141.837C215.92 141.837 217.974 139.955 217.974 137.559C217.974 135.335 215.92 133.282 213.525 133.282ZM213.525 142.863C210.617 142.863 208.221 140.639 208.221 137.73C208.221 134.822 210.617 132.598 213.525 132.598C216.434 132.598 218.829 134.822 218.829 137.73C218.829 140.468 216.434 142.863 213.525 142.863Z" fill="#09DD46"/>
</svg>
