<svg width="43" height="43" viewBox="0 0 43 43" fill="none" xmlns="http://www.w3.org/2000/svg">
<path fill-rule="evenodd" clip-rule="evenodd" d="M36.7352 6.24852C34.7474 4.25984 32.386 2.68396 29.7868 1.61159C27.1876 0.53922 24.4019 -0.00845257 21.5902 9.86115e-05C9.79016 9.86115e-05 0.184285 9.55798 0.179486 21.3081C0.174266 25.0496 1.16051 28.7256 3.03783 31.9621L0 43L11.3499 40.037C14.4916 41.739 18.0084 42.6298 21.5815 42.6285H21.5902C33.3892 42.6285 42.9941 33.0697 42.9999 21.3206C43.0071 18.5184 42.4569 15.7428 41.3813 13.1553C40.3058 10.5678 38.7265 8.21999 36.7352 6.24852ZM21.5902 39.0321H21.5825C18.3972 39.033 15.2699 38.1806 12.5256 36.5635L11.8758 36.1795L5.14079 37.9379L6.93853 31.4025L6.51525 30.7306C4.7342 27.9109 3.79056 24.6432 3.79417 21.3081C3.79417 11.5438 11.7808 3.59942 21.5969 3.59942C26.3058 3.59101 30.8251 5.45334 34.161 8.7768C37.4969 12.1003 39.3761 16.6127 39.3852 21.3215C39.3814 31.0867 31.3986 39.0321 21.5902 39.0321ZM31.3506 25.7684C30.816 25.5015 28.1832 24.2135 27.6956 24.0359C27.208 23.8583 26.8481 23.7691 26.492 24.3027C26.1359 24.8364 25.1098 26.0304 24.7979 26.3903C24.4859 26.7503 24.174 26.7896 23.6394 26.5228C23.1048 26.256 21.38 25.6945 19.3365 23.8804C17.7461 22.4685 16.673 20.7255 16.3611 20.1928C16.0491 19.6601 16.3275 19.3712 16.5953 19.1063C16.8362 18.8673 17.1299 18.4843 17.3977 18.1733C17.6655 17.8623 17.7547 17.6397 17.9323 17.2845C18.1099 16.9294 18.0216 16.6184 17.8882 16.3525C17.7547 16.0867 16.6845 13.4654 16.2392 12.399C15.8044 11.3605 15.3638 11.5016 15.0356 11.4853C14.7236 11.4699 14.3637 11.4661 14.0095 11.4661C13.7388 11.4731 13.4724 11.5359 13.227 11.6505C12.9816 11.7652 12.7624 11.9291 12.5832 12.1322C12.0928 12.6659 10.7106 13.9559 10.7106 16.5743C10.7106 19.1926 12.6303 21.7266 12.8952 22.0817C13.1601 22.4368 16.6673 27.8147 22.0336 30.1211C23.0301 30.5479 24.0483 30.9221 25.0839 31.2422C26.3653 31.6473 27.5315 31.5906 28.4529 31.4534C29.4808 31.3008 31.6203 30.1653 32.0647 28.9214C32.5091 27.6774 32.51 26.612 32.3766 26.3903C32.2432 26.1686 31.8862 26.0342 31.3506 25.7684Z" fill="white"/>
</svg>
