<svg width="197" height="91" viewBox="0 0 197 91" fill="none" xmlns="http://www.w3.org/2000/svg">
<path d="M63.136 72.72C60.4 72.72 57.856 72.168 55.504 71.064C53.152 69.96 51.232 68.376 49.744 66.312C49.168 65.448 48.88 64.608 48.88 63.792C48.88 62.592 49.336 61.584 50.248 60.768C51.208 59.952 52.144 59.544 53.056 59.544C53.776 59.544 54.472 59.76 55.144 60.192C55.864 60.624 56.512 61.128 57.088 61.704C58.048 62.568 58.984 63.192 59.896 63.576C60.856 63.912 61.936 64.08 63.136 64.08C64.576 64.08 65.92 63.72 67.168 63C68.416 62.28 69.424 61.32 70.192 60.12C70.96 58.92 71.344 57.624 71.344 56.232V25.992C71.344 24.744 71.8 23.712 72.712 22.896C73.624 22.032 74.68 21.6 75.88 21.6C77.224 21.6 78.304 22.032 79.12 22.896C79.936 23.712 80.344 24.744 80.344 25.992V56.232C80.344 59.16 79.576 61.872 78.04 64.368C76.504 66.864 74.44 68.88 71.848 70.416C69.256 71.952 66.352 72.72 63.136 72.72ZM121.367 24.048C122.615 24.672 123.335 25.656 123.527 27C123.767 28.344 123.431 29.568 122.519 30.672C121.895 31.536 121.079 32.016 120.071 32.112C119.111 32.208 118.127 32.016 117.119 31.536C115.967 31.008 114.743 30.6 113.447 30.312C112.199 30.024 110.879 29.88 109.487 29.88C106.895 29.88 104.567 30.288 102.503 31.104C100.487 31.92 98.7586 33.096 97.3186 34.632C95.8786 36.12 94.7746 37.896 94.0066 39.96C93.2866 42.024 92.9266 44.304 92.9266 46.8C92.9266 49.728 93.3346 52.272 94.1506 54.432C95.0146 56.592 96.1906 58.392 97.6786 59.832C99.1666 61.272 100.919 62.352 102.935 63.072C104.951 63.744 107.135 64.08 109.487 64.08C110.783 64.08 112.079 63.96 113.375 63.72C114.671 63.48 115.919 63.048 117.119 62.424C118.127 61.944 119.111 61.776 120.071 61.92C121.079 62.064 121.919 62.568 122.591 63.432C123.551 64.632 123.887 65.88 123.599 67.176C123.359 68.424 122.639 69.336 121.439 69.912C120.191 70.536 118.895 71.064 117.551 71.496C116.255 71.88 114.935 72.168 113.591 72.36C112.247 72.6 110.879 72.72 109.487 72.72C106.031 72.72 102.743 72.168 99.6226 71.064C96.5506 69.96 93.7906 68.328 91.3426 66.168C88.9426 64.008 87.0466 61.32 85.6546 58.104C84.2626 54.84 83.5666 51.072 83.5666 46.8C83.5666 43.104 84.1906 39.696 85.4386 36.576C86.7346 33.456 88.5346 30.768 90.8386 28.512C93.1906 26.208 95.9506 24.432 99.1186 23.184C102.287 21.888 105.743 21.24 109.487 21.24C111.599 21.24 113.663 21.48 115.679 21.96C117.695 22.44 119.591 23.136 121.367 24.048Z" fill="#0AE448"/>
<g filter="url(#filter0_d_2008_24)">
<rect x="37.6807" y="84.8456" width="54" height="11.0676" rx="5" transform="rotate(-131.357 37.6807 84.8456)" fill="#0AE448"/>
</g>
<g filter="url(#filter1_d_2008_24)">
<rect x="50.1902" y="16.6989" width="54" height="11.5892" rx="5" transform="rotate(138.643 50.1902 16.6989)" fill="#0AE448"/>
</g>
<defs>
<filter id="filter0_d_2008_24" x="0.0568848" y="39.0567" width="47.8745" height="51.7321" filterUnits="userSpaceOnUse" color-interpolation-filters="sRGB">
<feFlood flood-opacity="0" result="BackgroundImageFix"/>
<feColorMatrix in="SourceAlpha" type="matrix" values="0 0 0 0 0 0 0 0 0 0 0 0 0 0 0 0 0 0 127 0" result="hardAlpha"/>
<feOffset dy="4"/>
<feGaussianBlur stdDeviation="2"/>
<feComposite in2="hardAlpha" operator="out"/>
<feColorMatrix type="matrix" values="0 0 0 0 0 0 0 0 0 0 0 0 0 0 0 0 0 0 0.25 0"/>
<feBlend mode="normal" in2="BackgroundImageFix" result="effect1_dropShadow_2008_24"/>
<feBlend mode="normal" in="SourceGraphic" in2="effect1_dropShadow_2008_24" result="shape"/>
</filter>
<filter id="filter1_d_2008_24" x="0.0566406" y="10.0567" width="52.0769" height="48.2661" filterUnits="userSpaceOnUse" color-interpolation-filters="sRGB">
<feFlood flood-opacity="0" result="BackgroundImageFix"/>
<feColorMatrix in="SourceAlpha" type="matrix" values="0 0 0 0 0 0 0 0 0 0 0 0 0 0 0 0 0 0 127 0" result="hardAlpha"/>
<feOffset dy="4"/>
<feGaussianBlur stdDeviation="2"/>
<feComposite in2="hardAlpha" operator="out"/>
<feColorMatrix type="matrix" values="0 0 0 0 0 0 0 0 0 0 0 0 0 0 0 0 0 0 0.25 0"/>
<feBlend mode="normal" in2="BackgroundImageFix" result="effect1_dropShadow_2008_24"/>
<feBlend mode="normal" in="SourceGraphic" in2="effect1_dropShadow_2008_24" result="shape"/>
</filter>
</defs>
</svg>
